<svg width="267.059" height="69.11" viewBox="0 0 267.059 69.11" xmlns="http://www.w3.org/2000/svg"><g id="svgGroup" stroke-linecap="round" fill-rule="nonzero" font-size="9pt" stroke="#000" stroke-width="0.25mm" fill="#000" style="stroke:#000;stroke-width:0.25mm;fill:#000"><path d="M 172.2 26.21 L 194.1 0.91 L 208.9 0.91 L 208.9 69.11 L 191.9 69.11 L 191.9 26.51 L 173.5 47.91 L 170.9 47.91 L 152.5 26.51 L 152.5 69.11 L 135.5 69.11 L 135.5 0.91 L 150.3 0.91 L 172.2 26.21 Z M 49.1 39.61 L 0 60.91 L 0 47.21 L 34.3 33.61 L 0 20.01 L 0 6.31 L 49.1 27.61 L 49.1 39.61 Z M 94.9 3.11 C 92 5.71 89.8 11.21 90.4 16.01 C 93.9 17.41 95.5 19.61 95.5 23.31 C 95.5 27.91 92 31.21 87.3 31.21 C 81.4 31.21 77.3 26.51 77.3 19.81 C 77.3 9.81 85.1 1.01 94.9 0.01 L 94.9 3.11 Z M 122.7 3.11 C 119.8 5.71 117.6 11.21 118.2 16.01 C 121.7 17.41 123.3 19.61 123.3 23.31 C 123.3 27.91 119.8 31.21 115.1 31.21 C 109.2 31.21 105.1 26.51 105.1 19.81 C 105.1 9.81 112.9 1.01 122.7 0.01 L 122.7 3.11 Z M 249.4 28.11 C 252.3 25.51 254.5 20.01 253.9 15.21 C 250.4 13.81 248.8 11.61 248.8 7.91 C 248.8 3.31 252.3 0.01 257 0.01 C 262.9 0.01 267 4.71 267 11.41 C 267 21.41 259.2 30.21 249.4 31.21 L 249.4 28.11 Z M 221.6 28.11 C 224.5 25.51 226.7 20.01 226.1 15.21 C 222.6 13.81 221 11.61 221 7.91 C 221 3.31 224.5 0.01 229.2 0.01 C 235.1 0.01 239.2 4.71 239.2 11.41 C 239.2 21.41 231.4 30.21 221.6 31.21 L 221.6 28.11 Z" vector-effect="non-scaling-stroke"/></g></svg>