<svg xmlns="http://www.w3.org/2000/svg" viewBox="0 0 208 128" width="208" height="128">
  <path 
  clip-rule="evenodd" 
  d="M 0 15 C 0 6.716 6.716 0 15 0 L 193 0 C 201.284 0 208 6.716 208 15 L 208 113 C 208 121.284 201.284 128 193 128 L 15 128 C 6.716 128 0 121.284 0 113 L 0 15 Z M 66.626 68.585 L 17.416 89.788 L 17.416 76.15 L 51.793 62.613 L 17.416 49.075 L 17.416 35.438 L 66.626 56.64 L 66.626 68.585 Z M 86.688 32.252 C 83.781 34.84 81.576 40.315 82.177 45.093 C 85.685 46.487 87.289 48.677 87.289 52.36 C 87.289 56.939 83.781 60.224 79.07 60.224 C 73.157 60.224 69.048 55.545 69.048 48.876 C 69.048 38.922 76.866 30.162 86.688 29.166 L 86.688 32.252 Z M 90 98 L 90 30 L 110 30 L 130 55 L 150 30 L 170 30 L 170 98 L 150 98 L 150 59 L 130 84 L 110 59 L 110 98 L 90 98 Z M 173.664 57.138 C 176.57 54.55 178.775 49.075 178.174 44.297 C 174.666 42.903 173.062 40.713 173.062 37.03 C 173.062 32.451 176.57 29.166 181.281 29.166 C 187.194 29.166 191.303 33.845 191.303 40.514 C 191.303 50.468 183.486 59.228 173.664 60.224 L 173.664 57.138 Z"
  fill-rule="evenodd"
  />
</svg>